<svg xmlns="http://www.w3.org/2000/svg" width="53" height="50" viewBox="0 0 53 50" fill="none">
  <mask id="mask0_185_845" style="mask-type:luminance" maskUnits="userSpaceOnUse" x="12" y="13" width="29" height="24">
    <path d="M40.704 13.8667H12.0133V36.1334H40.704V13.8667Z" fill="white"/>
  </mask>
  <g mask="url(#mask0_185_845)">
    <mask id="mask1_185_845" style="mask-type:luminance" maskUnits="userSpaceOnUse" x="12" y="13" width="19" height="24">
      <path d="M12.1442 13.9865H30.0057V36.0135H12.1442V13.9865Z" fill="white"/>
    </mask>
    <g mask="url(#mask1_185_845)">
      <path d="M30.011 19.1594V25.6432H24.7591V18.9406H12.1478V13.9865H24.6034C25.5706 14.924 28.0903 17.3318 30.011 19.1594ZM12.1478 31.0656L17.3992 36.0141V30.5979H24.7596V25.6432H12.1478V31.0656Z" fill="#FFFEFE"/>
    </g>
    <path d="M27.4106 28.4132C27.4106 28.5798 27.3692 28.733 27.2869 28.8715C27.2058 29.009 27.0816 29.121 26.9137 29.2069C26.7459 29.2918 26.5367 29.334 26.2866 29.334H25.825V30.3694H25.0786V27.484H26.2866C26.5306 27.484 26.7371 27.5236 26.9049 27.6028C27.0727 27.6819 27.1986 27.7918 27.2825 27.9319C27.3676 28.0726 27.4106 28.233 27.4106 28.4132ZM26.2292 28.7736C26.3716 28.7736 26.4776 28.7423 26.5472 28.6798C26.6178 28.6173 26.6532 28.5288 26.6532 28.4132C26.6532 28.2981 26.6178 28.209 26.5472 28.1465C26.4776 28.083 26.3716 28.0507 26.2292 28.0507H25.825V28.7736H26.2292Z" fill="#FFFEFE"/>
    <path d="M30.1133 30.3694L29.4773 29.2798H29.2984V30.3694H28.552V27.484H29.8041C30.0437 27.484 30.2486 27.5236 30.418 27.6028C30.5886 27.6819 30.7162 27.7913 30.8001 27.9298C30.8851 28.0689 30.9282 28.2231 30.9282 28.3923C30.9282 28.584 30.8708 28.7559 30.7559 28.9069C30.6411 29.0569 30.4716 29.1642 30.248 29.2278L30.9525 30.3694H30.1133ZM29.2984 28.7819H29.76C29.8969 28.7819 29.999 28.7507 30.0669 28.6882C30.1343 28.6257 30.1685 28.5371 30.1685 28.4215C30.1685 28.3121 30.1343 28.2257 30.0669 28.1632C29.999 28.0996 29.8969 28.0673 29.76 28.0673H29.2984V28.7819Z" fill="#FFFEFE"/>
    <path d="M33.5938 30.3985C33.3067 30.3985 33.0428 30.3355 32.8032 30.2089C32.5631 30.0829 32.3726 29.9068 32.2313 29.6818C32.091 29.4558 32.0215 29.2016 32.0215 28.9193C32.0215 28.636 32.091 28.3829 32.2313 28.1589C32.3726 27.9339 32.5631 27.7584 32.8032 27.6318C33.0428 27.5058 33.3067 27.4423 33.5938 27.4423C33.882 27.4423 34.1459 27.5058 34.3844 27.6318C34.624 27.7584 34.8134 27.9339 34.9519 28.1589C35.09 28.3829 35.1595 28.636 35.1595 28.9193C35.1595 29.2016 35.0894 29.4558 34.9497 29.6818C34.8095 29.9068 34.6207 30.0829 34.3822 30.2089C34.1448 30.3355 33.882 30.3985 33.5938 30.3985ZM33.5938 29.7568C33.8378 29.7568 34.0333 29.6808 34.179 29.5277C34.3259 29.3735 34.3999 29.1709 34.3999 28.9193C34.3999 28.6641 34.3259 28.4605 34.179 28.3089C34.0333 28.1563 33.8378 28.0798 33.5938 28.0798C33.3476 28.0798 33.151 28.1558 33.0042 28.3068C32.8568 28.4568 32.7834 28.661 32.7834 28.9193C32.7834 29.1735 32.8568 29.3772 33.0042 29.5298C33.151 29.6813 33.3476 29.7568 33.5938 29.7568Z" fill="#FFFEFE"/>
    <path d="M26.238 33.8634C25.9829 33.8634 25.7632 33.8238 25.5777 33.7446C25.3933 33.6644 25.2514 33.5509 25.1515 33.405C25.051 33.2582 25.0013 33.0858 25.0013 32.8884H25.6815C25.6815 33.0259 25.7312 33.1332 25.8317 33.2092C25.9316 33.2858 26.0658 33.3238 26.2336 33.3238C26.3793 33.3238 26.4942 33.2978 26.5781 33.2446C26.662 33.1905 26.704 33.1155 26.704 33.0196C26.704 32.9186 26.6532 32.8363 26.5516 32.7738C26.45 32.7103 26.2916 32.6566 26.0768 32.6134C25.7191 32.5425 25.4546 32.4342 25.284 32.2884C25.1129 32.1425 25.0278 31.954 25.0278 31.7217C25.0278 31.4582 25.1294 31.2504 25.3326 31.0988C25.5358 30.9462 25.8129 30.8696 26.1651 30.8696C26.4047 30.8696 26.6134 30.9092 26.7901 30.9884C26.9679 31.0665 27.1059 31.1759 27.2031 31.3175C27.3002 31.4582 27.3488 31.6254 27.3488 31.8196H26.6819C26.6819 31.6905 26.6366 31.5894 26.5472 31.5155C26.4572 31.442 26.333 31.405 26.174 31.405C26.0282 31.405 25.9123 31.4321 25.8273 31.4863C25.7433 31.5394 25.7014 31.6134 25.7014 31.7092C25.7014 31.7967 25.7478 31.8712 25.8405 31.9321C25.9344 31.992 26.0978 32.0478 26.3308 32.0988C26.7106 32.1837 26.9844 32.2978 27.1523 32.4405C27.3212 32.5837 27.4062 32.7686 27.4062 32.9946C27.4062 33.267 27.3024 33.48 27.0948 33.6342C26.8873 33.7873 26.6013 33.8634 26.238 33.8634Z" fill="#FFFEFE"/>
    <path d="M30.1211 33.8634C29.813 33.8634 29.5403 33.7998 29.3018 33.6717C29.0633 33.5441 28.8767 33.3686 28.7431 33.1446C28.6106 32.9196 28.5443 32.6603 28.5443 32.3655C28.5443 32.0728 28.6106 31.8144 28.7431 31.5905C28.8767 31.3655 29.0622 31.1894 29.2996 31.0613C29.5364 30.9337 29.8086 30.8696 30.1166 30.8696C30.3756 30.8696 30.6124 30.9165 30.8277 31.0092C31.0425 31.1024 31.223 31.2342 31.3688 31.405C31.5156 31.5748 31.6183 31.7748 31.6757 32.005H30.9624C30.9034 31.8457 30.7996 31.7196 30.6511 31.628C30.5037 31.5363 30.3331 31.4905 30.1387 31.4905C29.9676 31.4905 29.8147 31.528 29.6794 31.603C29.5436 31.6769 29.4376 31.7795 29.3614 31.9113C29.2863 32.042 29.2488 32.1936 29.2488 32.3655C29.2488 32.5394 29.2863 32.692 29.3614 32.8238C29.4376 32.9545 29.543 33.0571 29.6772 33.1321C29.8108 33.2061 29.9632 33.2425 30.1343 33.2425C30.3342 33.2425 30.5097 33.1941 30.6599 33.0967C30.8112 32.9998 30.9194 32.8686 30.9845 32.703H31.6978C31.6492 32.9363 31.5504 33.1405 31.4019 33.3155C31.2545 33.4894 31.0712 33.6238 30.852 33.7196C30.6323 33.8155 30.3888 33.8634 30.1211 33.8634Z" fill="#FFFEFE"/>
    <path d="M32.6672 33.8049L33.8774 30.9279H34.5576L35.7699 33.8049H35.0279L34.8226 33.307H33.6124L33.407 33.8049H32.6672ZM33.7913 32.7945H34.6481L34.2175 31.7424L33.7913 32.7945Z" fill="#FFFEFE"/>
    <path d="M36.9293 33.8049V30.9279H37.5167L38.8638 32.6779V30.9279H39.5506V33.8049H38.9632L37.6161 32.0424V33.8049H36.9293Z" fill="#FFFEFE"/>
  </g>
</svg>