<svg width="260" height="222" viewBox="0 0 260 222" fill="none" xmlns="http://www.w3.org/2000/svg">
<path d="M118.11 0.864502C127.235 10.2396 151.006 34.3181 169.125 52.594V117.432H119.583V166.979H50.1458V221.141L0.603821 171.656V117.432H119.578V50.4065H0.603821V0.864502H118.11ZM132.84 169.696C135.101 169.696 137.07 170.091 138.737 170.883C140.414 171.664 141.715 172.758 142.632 174.175C143.549 175.581 144.007 177.253 144.007 179.196H137.715C137.715 177.904 137.288 176.894 136.445 176.155C135.596 175.42 134.424 175.05 132.924 175.05C131.549 175.05 130.455 175.321 129.653 175.863C128.861 176.394 128.465 177.134 128.465 178.092C128.465 178.967 128.903 179.711 129.778 180.321C130.663 180.919 132.205 181.477 134.403 181.988C137.986 182.836 140.569 183.977 142.153 185.405C143.746 186.837 144.549 188.685 144.549 190.946C144.549 193.67 143.57 195.8 141.612 197.342C139.653 198.873 136.955 199.633 133.528 199.633C131.122 199.633 129.049 199.237 127.299 198.446C125.56 197.643 124.22 196.508 123.278 195.05C122.33 193.581 121.862 191.857 121.862 189.883H128.278C128.278 191.258 128.747 192.332 129.695 193.092C130.637 193.858 131.903 194.238 133.487 194.238C134.862 194.238 135.945 193.977 136.737 193.446C137.528 192.904 137.924 192.154 137.924 191.196C137.924 190.185 137.445 189.362 136.487 188.738C135.528 188.102 134.033 187.565 132.007 187.133C128.632 186.425 126.137 185.341 124.528 183.883C122.913 182.425 122.112 180.54 122.112 178.217C122.112 175.582 123.07 173.503 124.987 171.988C126.903 170.462 129.517 169.696 132.84 169.696ZM170.119 169.696C172.562 169.696 174.796 170.165 176.827 171.092C178.853 172.024 180.557 173.342 181.932 175.05C183.317 176.748 184.286 178.748 184.827 181.05H178.099C177.542 179.456 176.562 178.196 175.161 177.28C173.771 176.363 172.161 175.905 170.327 175.905C168.713 175.905 167.27 176.28 165.994 177.03C164.713 177.769 163.713 178.795 162.994 180.113C162.286 181.42 161.932 182.936 161.932 184.655C161.932 186.394 162.286 187.92 162.994 189.238C163.713 190.545 164.708 191.571 165.974 192.321C167.234 193.06 168.672 193.425 170.286 193.425C172.172 193.425 173.828 192.941 175.244 191.967C176.671 190.998 177.692 189.686 178.307 188.03H185.036C184.578 190.363 183.645 192.405 182.244 194.155C180.854 195.894 179.125 197.237 177.057 198.196C174.984 199.154 172.687 199.633 170.161 199.633C167.255 199.633 164.682 198.998 162.432 197.717C160.182 196.441 158.422 194.685 157.161 192.446C155.912 190.196 155.286 187.602 155.286 184.655C155.286 181.728 155.911 179.144 157.161 176.905C158.422 174.655 160.172 172.894 162.411 171.613C164.646 170.337 167.213 169.696 170.119 169.696ZM223.452 199.05H216.452L214.515 194.071H203.098L201.16 199.05H194.181L205.598 170.28H212.015L223.452 199.05ZM252.64 187.78V170.28H259.118V199.05H253.577L240.868 181.425V199.05H234.39V170.28H239.931L252.64 187.78ZM204.785 188.946H212.868L208.806 178.425L204.785 188.946ZM202.922 135.423C205.641 135.423 208.131 136.058 210.381 137.319C212.642 138.584 214.427 140.34 215.735 142.59C217.037 144.83 217.694 147.36 217.694 150.194C217.694 153.016 217.032 155.558 215.714 157.819C214.391 160.069 212.61 161.83 210.36 163.09C208.12 164.356 205.641 164.986 202.922 164.986C200.214 164.986 197.724 164.356 195.464 163.09C193.199 161.83 191.402 160.069 190.069 157.819C188.746 155.558 188.089 153.016 188.089 150.194C188.089 147.36 188.746 144.83 190.069 142.59C191.402 140.34 193.199 138.584 195.464 137.319C197.724 136.058 200.214 135.423 202.922 135.423ZM133.987 135.84C136.289 135.84 138.236 136.236 139.82 137.028C141.403 137.819 142.59 138.918 143.382 140.319C144.184 141.725 144.59 143.329 144.59 145.131C144.59 146.798 144.2 148.33 143.424 149.715C142.659 151.09 141.486 152.209 139.903 153.069C138.319 153.917 136.346 154.34 133.987 154.34H129.632V164.694H122.59V135.84H133.987ZM167.17 135.84C169.431 135.84 171.363 136.236 172.962 137.028C174.572 137.819 175.775 138.913 176.567 140.298C177.369 141.689 177.775 143.23 177.775 144.923C177.775 146.84 177.233 148.558 176.15 150.069C175.066 151.569 173.467 152.642 171.358 153.278L178.004 164.694H170.087L164.087 153.798H162.4V164.694H155.358V135.84H167.17ZM202.922 141.798C200.599 141.798 198.745 142.558 197.36 144.069C195.969 145.569 195.277 147.61 195.277 150.194C195.277 152.735 195.969 154.772 197.36 156.298C198.745 157.814 200.599 158.569 202.922 158.569C205.224 158.569 207.069 157.809 208.444 156.278C209.829 154.736 210.527 152.709 210.527 150.194C210.527 147.642 209.829 145.606 208.444 144.09C207.069 142.564 205.224 141.798 202.922 141.798ZM162.4 148.819H166.754C168.046 148.819 169.009 148.506 169.65 147.881C170.285 147.256 170.608 146.371 170.608 145.215C170.608 144.121 170.285 143.256 169.65 142.631C169.009 141.996 168.046 141.673 166.754 141.673H162.4V148.819ZM129.632 148.736H133.445C134.788 148.736 135.788 148.423 136.445 147.798C137.111 147.173 137.445 146.287 137.445 145.131C137.445 143.98 137.111 143.09 136.445 142.465C135.788 141.83 134.788 141.506 133.445 141.506H129.632V148.736Z" fill="#318735"/>
</svg>
